<svg width="330" height="47" viewBox="0 0 330 47" fill="none" xmlns="http://www.w3.org/2000/svg">
<path d="M18.224 46.448C14.9387 46.448 11.9947 45.9147 9.392 44.848C6.78933 43.7813 4.69867 42.2027 3.12 40.112C1.584 38.0213 0.773334 35.504 0.688 32.56H12.336C12.5067 34.224 13.0827 35.504 14.064 36.4C15.0453 37.2533 16.3253 37.68 17.904 37.68C19.5253 37.68 20.8053 37.3173 21.744 36.592C22.6827 35.824 23.152 34.7787 23.152 33.456C23.152 32.3467 22.768 31.4293 22 30.704C21.2747 29.9787 20.3573 29.3813 19.248 28.912C18.1813 28.4427 16.6453 27.9093 14.64 27.312C11.7387 26.416 9.37067 25.52 7.536 24.624C5.70133 23.728 4.12267 22.4053 2.8 20.656C1.47733 18.9067 0.816 16.624 0.816 13.808C0.816 9.62667 2.33067 6.36267 5.36 4.016C8.38933 1.62667 12.336 0.431999 17.2 0.431999C22.1493 0.431999 26.1387 1.62667 29.168 4.016C32.1973 6.36267 33.8187 9.648 34.032 13.872H22.192C22.1067 12.4213 21.5733 11.2907 20.592 10.48C19.6107 9.62666 18.352 9.2 16.816 9.2C15.4933 9.2 14.4267 9.56266 13.616 10.288C12.8053 10.9707 12.4 11.9733 12.4 13.296C12.4 14.7467 13.0827 15.8773 14.448 16.688C15.8133 17.4987 17.9467 18.3733 20.848 19.312C23.7493 20.2933 26.096 21.232 27.888 22.128C29.7227 23.024 31.3013 24.3253 32.624 26.032C33.9467 27.7387 34.608 29.936 34.608 32.624C34.608 35.184 33.9467 37.5093 32.624 39.6C31.344 41.6907 29.4667 43.3547 26.992 44.592C24.5173 45.8293 21.5947 46.448 18.224 46.448ZM75.007 27.568C75.007 28.592 74.943 29.6587 74.815 30.768H50.047C50.2177 32.9867 50.9217 34.6933 52.159 35.888C53.439 37.04 54.9963 37.616 56.831 37.616C59.5617 37.616 61.4603 36.464 62.527 34.16H74.175C73.5777 36.5067 72.4897 38.6187 70.911 40.496C69.375 42.3733 67.4337 43.8453 65.087 44.912C62.7403 45.9787 60.1163 46.512 57.215 46.512C53.7163 46.512 50.6017 45.7653 47.871 44.272C45.1403 42.7787 43.007 40.6453 41.471 37.872C39.935 35.0987 39.167 31.856 39.167 28.144C39.167 24.432 39.9137 21.1893 41.407 18.416C42.943 15.6427 45.0763 13.5093 47.807 12.016C50.5377 10.5227 53.6737 9.776 57.215 9.776C60.671 9.776 63.743 10.5013 66.431 11.952C69.119 13.4027 71.2097 15.472 72.703 18.16C74.239 20.848 75.007 23.984 75.007 27.568ZM63.807 24.688C63.807 22.8107 63.167 21.3173 61.887 20.208C60.607 19.0987 59.007 18.544 57.087 18.544C55.2523 18.544 53.695 19.0773 52.415 20.144C51.1777 21.2107 50.4097 22.7253 50.111 24.688H63.807ZM96.8445 35.76L104.589 10.288H116.237L103.565 46H90.0605L77.3885 10.288H89.1005L96.8445 35.76ZM154.507 27.568C154.507 28.592 154.443 29.6587 154.315 30.768H129.547C129.718 32.9867 130.422 34.6933 131.659 35.888C132.939 37.04 134.496 37.616 136.331 37.616C139.062 37.616 140.96 36.464 142.027 34.16H153.675C153.078 36.5067 151.99 38.6187 150.411 40.496C148.875 42.3733 146.934 43.8453 144.587 44.912C142.24 45.9787 139.616 46.512 136.715 46.512C133.216 46.512 130.102 45.7653 127.371 44.272C124.64 42.7787 122.507 40.6453 120.971 37.872C119.435 35.0987 118.667 31.856 118.667 28.144C118.667 24.432 119.414 21.1893 120.907 18.416C122.443 15.6427 124.576 13.5093 127.307 12.016C130.038 10.5227 133.174 9.776 136.715 9.776C140.171 9.776 143.243 10.5013 145.931 11.952C148.619 13.4027 150.71 15.472 152.203 18.16C153.739 20.848 154.507 23.984 154.507 27.568ZM143.307 24.688C143.307 22.8107 142.667 21.3173 141.387 20.208C140.107 19.0987 138.507 18.544 136.587 18.544C134.752 18.544 133.195 19.0773 131.915 20.144C130.678 21.2107 129.91 22.7253 129.611 24.688H143.307ZM182.041 9.904C186.222 9.904 189.55 11.2693 192.025 14C194.542 16.688 195.801 20.4 195.801 25.136V46H184.921V26.608C184.921 24.2187 184.302 22.3627 183.065 21.04C181.827 19.7173 180.163 19.056 178.073 19.056C175.982 19.056 174.318 19.7173 173.081 21.04C171.843 22.3627 171.225 24.2187 171.225 26.608V46H160.281V10.288H171.225V15.024C172.334 13.4453 173.827 12.208 175.705 11.312C177.582 10.3733 179.694 9.904 182.041 9.904ZM227.912 1.072V46H216.968V1.072H227.912ZM257.603 9.904C261.784 9.904 265.112 11.2693 267.587 14C270.104 16.688 271.363 20.4 271.363 25.136V46H260.483V26.608C260.483 24.2187 259.864 22.3627 258.627 21.04C257.39 19.7173 255.726 19.056 253.635 19.056C251.544 19.056 249.88 19.7173 248.643 21.04C247.406 22.3627 246.787 24.2187 246.787 26.608V46H235.843V10.288H246.787V15.024C247.896 13.4453 249.39 12.208 251.267 11.312C253.144 10.3733 255.256 9.904 257.603 9.904ZM276.792 28.144C276.792 24.432 277.539 21.1893 279.032 18.416C280.568 15.6427 282.68 13.5093 285.368 12.016C288.099 10.5227 291.213 9.776 294.712 9.776C299.192 9.776 302.925 10.9493 305.912 13.296C308.941 15.6427 310.925 18.9493 311.864 23.216H300.216C299.235 20.4853 297.336 19.12 294.52 19.12C292.515 19.12 290.915 19.9093 289.72 21.488C288.525 23.024 287.928 25.2427 287.928 28.144C287.928 31.0453 288.525 33.2853 289.72 34.864C290.915 36.4 292.515 37.168 294.52 37.168C297.336 37.168 299.235 35.8027 300.216 33.072H311.864C310.925 37.2533 308.941 40.5387 305.912 42.928C302.883 45.3173 299.149 46.512 294.712 46.512C291.213 46.512 288.099 45.7653 285.368 44.272C282.68 42.7787 280.568 40.6453 279.032 37.872C277.539 35.0987 276.792 31.856 276.792 28.144ZM322.838 46.512C320.918 46.512 319.339 45.9573 318.102 44.848C316.907 43.696 316.31 42.288 316.31 40.624C316.31 38.9173 316.907 37.488 318.102 36.336C319.339 35.184 320.918 34.608 322.838 34.608C324.715 34.608 326.251 35.184 327.446 36.336C328.683 37.488 329.302 38.9173 329.302 40.624C329.302 42.288 328.683 43.696 327.446 44.848C326.251 45.9573 324.715 46.512 322.838 46.512Z" fill="#02051F"/>
</svg>
